<svg width="16" height="14" viewBox="0 0 16 14" fill="none" xmlns="http://www.w3.org/2000/svg">
<path d="M15.7512 0.256V0.616C15.3672 0.627999 15.0792 0.676 14.8872 0.76C14.6952 0.832 14.5632 0.976 14.4912 1.192C14.4312 1.396 14.4012 1.72 14.4012 2.164V11.092C14.4012 11.524 14.4312 11.848 14.4912 12.064C14.5632 12.28 14.6952 12.424 14.8872 12.496C15.0792 12.568 15.3672 12.616 15.7512 12.64V13C15.4152 12.976 14.9892 12.964 14.4732 12.964C13.9692 12.952 13.4532 12.946 12.9252 12.946C12.3492 12.946 11.8092 12.952 11.3052 12.964C10.8012 12.964 10.3932 12.976 10.0812 13V12.64C10.4892 12.616 10.7952 12.568 10.9992 12.496C11.2152 12.424 11.3592 12.28 11.4312 12.064C11.5032 11.848 11.5392 11.524 11.5392 11.092V1.354H11.6652L7.20118 13.018H6.91318L2.05318 1.426V10.048C2.05318 10.708 2.08918 11.218 2.16118 11.578C2.23318 11.926 2.38918 12.178 2.62918 12.334C2.88118 12.478 3.27118 12.58 3.79918 12.64V13C3.57118 12.976 3.27118 12.964 2.89918 12.964C2.52718 12.952 2.17918 12.946 1.85518 12.946C1.57918 12.946 1.29718 12.952 1.00918 12.964C0.72118 12.964 0.48118 12.976 0.28918 13V12.64C0.67318 12.58 0.96118 12.478 1.15318 12.334C1.34518 12.19 1.47118 11.956 1.53118 11.632C1.60318 11.296 1.63918 10.84 1.63918 10.264V2.164C1.63918 1.72 1.60318 1.396 1.53118 1.192C1.47118 0.976 1.33918 0.832 1.13518 0.76C0.94318 0.676 0.66118 0.627999 0.28918 0.616V0.256C0.48118 0.268 0.72118 0.28 1.00918 0.291999C1.29718 0.303999 1.57918 0.309999 1.85518 0.309999C2.37118 0.309999 2.87518 0.303999 3.36718 0.291999C3.87118 0.28 4.31518 0.268 4.69918 0.256L8.47918 9.382L8.02918 9.796L11.6472 0.309999C11.8512 0.309999 12.0612 0.309999 12.2772 0.309999C12.4932 0.309999 12.7092 0.309999 12.9252 0.309999C13.4532 0.309999 13.9692 0.303999 14.4732 0.291999C14.9892 0.28 15.4152 0.268 15.7512 0.256Z" fill="#C3A873"/>
</svg>
