<svg width="375" height="71" viewBox="0 0 375 71" fill="none" xmlns="http://www.w3.org/2000/svg">
<path d="M75.584 2.952C73.28 3.08 71.584 3.336 70.496 3.72C69.472 4.104 68.768 4.84 68.384 5.928C68 7.016 67.808 8.776 67.808 11.208V58.824C67.808 61.256 68 63.016 68.384 64.104C68.768 65.192 69.472 65.928 70.496 66.312C71.584 66.696 73.28 66.952 75.584 67.08V69C72.64 68.808 68.576 68.712 63.392 68.712C57.888 68.712 53.792 68.808 51.104 69V67.08C53.408 66.952 55.072 66.696 56.096 66.312C57.184 65.928 57.92 65.192 58.304 64.104C58.688 63.016 58.88 61.256 58.88 58.824V7.368L35.744 69.48H34.208L10.016 7.17599V57.864C10.016 60.36 10.208 62.216 10.592 63.432C11.04 64.648 11.872 65.544 13.088 66.12C14.304 66.632 16.192 66.952 18.752 67.08V69C16.448 68.808 13.184 68.712 8.96 68.712C5.12 68.712 2.144 68.808 0.0320003 69V67.08C2.272 66.952 3.936 66.632 5.024 66.12C6.112 65.544 6.848 64.648 7.232 63.432C7.616 62.152 7.808 60.296 7.808 57.864V11.208C7.808 8.776 7.616 7.016 7.232 5.928C6.848 4.84 6.112 4.104 5.024 3.72C4 3.336 2.336 3.08 0.0320003 2.952V1.032C2.144 1.224 5.12 1.32 8.96 1.32C12.288 1.32 15.008 1.224 17.12 1.032L38.24 56.616L58.88 1.32H63.392C68.576 1.32 72.64 1.224 75.584 1.032V2.952ZM128.873 1.32C131.753 1.32 134.153 1.224 136.073 1.032V2.952C134.793 3.272 133.545 4.104 132.329 5.44799C131.113 6.728 129.801 8.744 128.393 11.496L113.321 41.352V58.824C113.321 61.256 113.513 63.016 113.897 64.104C114.281 65.192 114.985 65.928 116.009 66.312C117.097 66.696 118.793 66.952 121.097 67.08V69C118.153 68.808 114.089 68.712 108.905 68.712C103.401 68.712 99.305 68.808 96.617 69V67.08C98.921 66.952 100.585 66.696 101.609 66.312C102.697 65.928 103.433 65.192 103.817 64.104C104.201 63.016 104.393 61.256 104.393 58.824V44.424L84.905 8.424C83.753 6.312 82.729 4.904 81.833 4.2C81.001 3.432 80.169 3.048 79.337 3.048V1.032C81.833 1.224 84.649 1.32 87.785 1.32C93.993 1.32 98.473 1.224 101.225 1.032V3.048C96.745 3.048 94.505 4.264 94.505 6.696C94.505 7.656 94.825 8.776 95.465 10.056L111.401 40.68L123.689 16.296C125.417 12.904 126.281 10.152 126.281 8.04C126.281 6.248 125.577 4.968 124.169 4.2C122.761 3.432 120.649 3.016 117.833 2.952V1.032C121.481 1.224 125.161 1.32 128.873 1.32ZM164.856 2.952C162.552 3.08 160.856 3.336 159.768 3.72C158.744 4.104 158.04 4.84 157.656 5.928C157.272 7.016 157.08 8.776 157.08 11.208V58.824C157.08 61.256 157.272 63.016 157.656 64.104C158.04 65.192 158.744 65.928 159.768 66.312C160.856 66.632 162.552 66.792 164.856 66.792H171.864C175.832 66.792 178.84 66.248 180.888 65.16C183 64.008 184.536 62.184 185.496 59.688C186.456 57.192 187.16 53.576 187.608 48.84H189.816C189.624 50.824 189.528 53.448 189.528 56.712C189.528 60.36 189.752 64.456 190.2 69C185.848 68.808 178.52 68.712 168.216 68.712C155.928 68.712 146.648 68.808 140.376 69V67.08C142.68 66.952 144.344 66.696 145.368 66.312C146.456 65.928 147.192 65.192 147.576 64.104C147.96 63.016 148.152 61.256 148.152 58.824V11.208C148.152 8.776 147.96 7.016 147.576 5.928C147.192 4.84 146.456 4.104 145.368 3.72C144.344 3.336 142.68 3.08 140.376 2.952V1.032C143.064 1.224 147.16 1.32 152.664 1.32C157.784 1.32 161.848 1.224 164.856 1.032V2.952ZM247.213 60.936C248.749 64.904 250.957 66.952 253.837 67.08V69C251.277 68.808 247.853 68.712 243.565 68.712C238.061 68.712 233.965 68.808 231.277 69V67.08C233.709 66.952 235.437 66.664 236.461 66.216C237.549 65.704 238.093 64.808 238.093 63.528C238.093 62.44 237.709 60.936 236.941 59.016L231.085 43.272H207.853L203.917 53.448C202.637 56.904 201.997 59.528 201.997 61.32C201.997 63.304 202.669 64.744 204.013 65.64C205.421 66.536 207.533 67.016 210.349 67.08V69C206.701 68.808 203.021 68.712 199.309 68.712C196.429 68.712 194.029 68.808 192.109 69V67.08C195.309 66.312 197.837 63.528 199.693 58.728L222.253 0.551994H223.789L247.213 60.936ZM230.317 41.352L219.565 12.648L208.621 41.352H230.317ZM314.735 64.2C313.263 66.376 311.791 67.944 310.319 68.904C308.847 69.864 306.895 70.344 304.463 70.344C301.839 70.344 299.663 69.576 297.935 68.04C296.271 66.504 295.023 63.816 294.191 59.976L292.079 50.376C291.311 47.048 290.575 44.488 289.871 42.696C289.231 40.904 288.239 39.464 286.895 38.376C285.551 37.288 283.663 36.744 281.231 36.744H272.111V58.824C272.111 61.256 272.303 63.016 272.687 64.104C273.071 65.192 273.775 65.928 274.799 66.312C275.887 66.696 277.583 66.952 279.887 67.08V69C276.943 68.808 272.879 68.712 267.695 68.712C262.191 68.712 258.095 68.808 255.407 69V67.08C257.711 66.952 259.375 66.696 260.399 66.312C261.487 65.928 262.223 65.192 262.607 64.104C262.991 63.016 263.183 61.256 263.183 58.824V11.208C263.183 8.776 262.991 7.016 262.607 5.928C262.223 4.84 261.487 4.104 260.399 3.72C259.375 3.336 257.711 3.08 255.407 2.952V1.032C258.095 1.224 261.999 1.32 267.119 1.32L277.487 1.224C278.703 1.16 280.079 1.128 281.615 1.128C289.039 1.128 294.735 2.696 298.703 5.832C302.735 8.904 304.751 12.904 304.751 17.832C304.751 20.328 304.143 22.856 302.927 25.416C301.775 27.912 299.791 30.184 296.975 32.232C294.223 34.216 290.607 35.56 286.127 36.264L287.279 36.456C291.503 37.16 294.575 38.44 296.495 40.296C298.415 42.152 299.823 45.096 300.719 49.128L303.119 58.92C303.759 61.864 304.431 63.912 305.135 65.064C305.839 66.216 306.799 66.792 308.015 66.792C309.103 66.792 309.999 66.504 310.703 65.928C311.471 65.352 312.335 64.424 313.295 63.144L314.735 64.2ZM279.215 2.952C277.231 2.952 275.727 3.176 274.703 3.62399C273.743 4.072 273.071 4.872 272.687 6.024C272.303 7.176 272.111 8.904 272.111 11.208V34.824H278.543C284.879 34.824 289.231 33.416 291.599 30.6C293.967 27.784 295.151 23.88 295.151 18.888C295.151 13.64 293.903 9.672 291.407 6.984C288.911 4.296 284.847 2.952 279.215 2.952ZM368.057 60.936C369.593 64.904 371.801 66.952 374.681 67.08V69C372.121 68.808 368.697 68.712 364.409 68.712C358.905 68.712 354.809 68.808 352.121 69V67.08C354.553 66.952 356.281 66.664 357.305 66.216C358.393 65.704 358.937 64.808 358.937 63.528C358.937 62.44 358.553 60.936 357.785 59.016L351.929 43.272H328.697L324.761 53.448C323.481 56.904 322.841 59.528 322.841 61.32C322.841 63.304 323.513 64.744 324.857 65.64C326.265 66.536 328.377 67.016 331.193 67.08V69C327.545 68.808 323.865 68.712 320.153 68.712C317.273 68.712 314.873 68.808 312.953 69V67.08C316.153 66.312 318.681 63.528 320.537 58.728L343.097 0.551994H344.633L368.057 60.936ZM351.161 41.352L340.409 12.648L329.465 41.352H351.161Z" fill="#C3A873"/>
</svg>
